<?xml version="1.0" standalone="no"?>
<!DOCTYPE svg PUBLIC "-//W3C//DTD SVG 20010904//EN"
 "http://www.w3.org/TR/2001/REC-SVG-20010904/DTD/svg10.dtd">
<svg version="1.0" xmlns="http://www.w3.org/2000/svg"
 width="512.000000pt" height="512.000000pt" viewBox="0 0 512.000000 512.000000"
 preserveAspectRatio="xMidYMid meet">
<metadata>
Created by potrace 1.16, written by Peter Selinger 2001-2019
</metadata>
<g transform="translate(0.000000,512.000000) scale(0.100000,-0.100000)"
fill="#000000" stroke="none">
<path d="M2035 4809 c-98 -23 -259 -128 -345 -227 -61 -68 -118 -192 -131
-282 -24 -168 -38 -228 -69 -290 -23 -48 -33 -84 -37 -135 -6 -82 -13 -98 -83
-185 -78 -96 -94 -138 -87 -226 4 -53 2 -76 -7 -84 -29 -23 -68 68 -68 160 -1
96 25 147 131 255 121 125 134 145 20 33 -123 -121 -129 -129 -150 -190 -18
-51 -18 -52 -18 -18 -1 64 34 118 147 228 l107 105 -108 -98 c-79 -72 -113
-112 -131 -149 -24 -51 -44 -142 -29 -133 5 3 8 -17 9 -44 1 -34 11 -67 33
-110 l32 -61 -21 -32 c-35 -57 -51 -118 -52 -191 0 -56 -2 -66 -11 -50 -6 11
-14 49 -17 85 l-7 65 -2 -55 c-1 -37 5 -68 18 -92 l18 -37 -39 -31 c-22 -18
-46 -47 -55 -64 l-15 -33 -87 18 c-266 54 -688 65 -943 23 -32 -5 -38 -10 -38
-31 0 -22 3 -24 27 -19 137 29 477 42 658 27 127 -11 352 -44 360 -53 2 -1 -4
-36 -14 -76 l-16 -74 -40 7 c-402 67 -598 71 -751 14 -77 -29 -62 -33 21 -6
105 33 339 30 568 -7 92 -15 175 -30 184 -33 11 -5 14 -15 9 -43 -3 -20 -9
-97 -12 -171 -5 -87 -12 -144 -22 -164 -8 -16 -20 -88 -27 -160 -7 -71 -18
-144 -26 -162 l-13 -31 -59 40 c-33 22 -105 62 -161 89 -190 90 -333 126 -526
131 -101 3 -110 2 -75 -8 22 -7 54 -13 71 -13 92 -2 311 -56 444 -108 136 -53
290 -132 284 -147 -3 -7 4 -40 16 -72 18 -51 20 -80 19 -219 0 -88 4 -181 10
-206 9 -40 8 -56 -9 -105 -26 -74 -26 -165 0 -221 l19 -43 -47 -21 c-101 -45
-234 -92 -404 -143 l-177 -53 -11 31 c-6 17 -17 109 -25 205 -8 95 -19 201
-25 235 -15 80 -51 216 -59 216 -3 0 -7 16 -8 35 -1 19 -7 42 -13 52 -12 19
-11 14 6 -49 3 -13 -18 24 -48 82 -82 157 -128 230 -128 202 0 -12 11 -39 23
-60 13 -20 61 -109 106 -197 96 -188 111 -245 136 -528 8 -99 20 -188 26 -198
7 -14 7 -99 0 -272 -11 -263 -6 -331 25 -354 25 -18 42 -16 18 3 -18 15 -18
15 3 5 12 -6 34 -11 50 -12 38 -1 -99 -35 -179 -44 -35 -5 -57 -10 -50 -13 8
-2 84 4 169 13 213 24 546 17 678 -14 119 -28 187 -50 205 -68 12 -11 6 -10
-24 2 -57 24 -267 63 -378 71 -95 7 -96 7 -104 -17 -15 -44 -16 -54 -18 -92 0
-21 -7 -42 -16 -47 -8 -5 -12 -10 -8 -10 4 0 4 -10 -1 -23 -8 -20 -5 -23 18
-27 52 -9 239 -5 404 8 160 13 170 12 182 -5 26 -36 24 -6 -7 82 -26 74 -32
110 -36 200 -5 131 14 227 76 375 l40 95 61 0 c33 0 61 -1 61 -3 0 -1 -9 -20
-20 -42 -11 -21 -33 -76 -50 -121 -16 -46 -47 -112 -69 -148 -50 -86 -61 -121
-61 -195 0 -70 11 -118 47 -198 21 -47 30 -58 49 -58 l24 0 -35 68 c-44 87
-69 183 -61 234 4 22 26 78 50 126 24 48 47 98 51 112 4 14 25 71 47 127 l39
102 57 11 c31 6 64 13 72 16 9 2 -9 -22 -40 -54 -30 -32 -75 -87 -99 -123
l-43 -64 42 45 c141 149 191 195 246 226 33 19 65 34 71 34 5 0 15 -11 21 -24
6 -14 22 -32 35 -40 22 -15 35 -12 214 48 199 67 281 87 269 67 -4 -6 -11 -11
-17 -11 -5 0 -102 -34 -216 -75 -159 -58 -225 -77 -282 -82 -63 -5 -82 -12
-130 -44 -82 -55 -157 -138 -193 -214 -17 -36 -28 -69 -24 -72 3 -3 39 25 81
63 158 144 216 192 276 224 65 34 66 32 11 -39 -97 -128 -174 -362 -158 -482
9 -68 45 -179 57 -179 6 0 8 8 5 18 -20 64 -36 156 -36 208 0 119 77 334 150
417 18 21 55 49 82 63 44 22 202 84 214 84 3 0 -14 -24 -38 -53 -124 -148
-142 -176 -72 -115 l37 33 -17 -32 c-29 -56 -17 -50 23 12 53 84 111 140 178
173 142 71 481 177 918 287 160 41 285 74 278 74 -6 1 -163 -28 -348 -64 -467
-90 -650 -123 -789 -140 -141 -18 -153 -18 -140 -6 5 4 52 14 104 21 101 13
405 67 840 149 326 62 380 70 380 60 0 -4 -8 -10 -17 -12 -17 -4 -17 -5 -1 -6
10 0 31 12 48 29 36 35 38 35 290 20 246 -15 335 -34 424 -91 59 -37 90 -100
106 -217 16 -109 8 -317 -15 -405 l-18 -69 -29 74 c-16 40 -56 154 -89 253
-34 99 -70 197 -82 217 -43 78 -142 119 -287 121 -171 1 -261 -33 -365 -138
-66 -66 -172 -210 -209 -282 -29 -57 -9 -36 66 70 40 56 104 134 143 173 60
60 80 74 135 92 98 31 163 42 253 42 114 0 153 -13 207 -69 41 -42 51 -64 113
-241 125 -354 146 -419 188 -585 l42 -165 127 0 128 0 6 31 c10 49 7 100 -7
157 l-14 52 246 3 246 2 -266 3 -266 2 -64 33 c-35 18 -92 39 -126 46 -36 8
-64 20 -68 28 -3 9 5 46 17 84 19 56 27 69 48 73 101 21 564 65 688 66 l32 0
0 100 0 100 -74 0 c-78 0 -287 -24 -343 -39 l-33 -9 17 31 c11 21 18 66 21
132 4 100 4 100 -27 139 -17 22 -34 49 -37 62 -9 36 23 89 83 133 30 22 53 41
49 41 -3 0 -95 -36 -204 -80 -109 -44 -202 -80 -205 -80 -4 0 -7 18 -7 40 0
48 13 58 126 99 77 28 139 41 363 76 57 9 129 25 160 35 l56 18 -45 1 c-40 1
-208 -16 -344 -35 -36 -5 -47 -4 -42 4 5 8 -1 12 -16 12 -21 0 -217 -42 -260
-56 -16 -5 -18 1 -18 40 0 40 6 52 53 107 98 117 177 219 169 219 -4 0 -57
-49 -117 -110 -60 -60 -113 -110 -117 -110 -4 0 -12 8 -17 18 -8 14 -5 29 10
56 18 34 19 43 8 97 -11 56 -10 61 9 82 11 12 64 46 117 76 109 62 141 89 78
67 -53 -19 -136 -61 -202 -103 -34 -22 -52 -29 -48 -19 4 9 1 15 -6 13 -32 -6
-14 46 47 136 37 53 66 100 66 104 0 4 -29 -21 -64 -56 -46 -46 -69 -62 -81
-57 -13 5 -15 12 -9 34 15 50 10 106 -14 139 -18 25 -22 45 -22 100 0 85 -14
137 -51 187 -16 22 -28 41 -26 42 1 1 126 -3 277 -8 151 -5 375 -6 498 -2 199
6 222 8 222 23 0 16 -28 17 -347 16 -192 0 -418 4 -504 8 l-155 9 -35 46 c-69
93 -98 98 -434 63 -104 -11 -191 -19 -193 -17 -4 5 105 240 179 386 35 69 64
130 64 135 0 6 -14 9 -31 7 -21 -2 -33 2 -37 13 -8 20 -132 21 -212 0 -103
-27 -197 -93 -240 -169 -9 -16 -14 -16 -65 8 -30 14 -78 30 -107 36 -36 8 -54
17 -58 30 -3 10 -19 36 -35 59 -34 46 -103 84 -272 150 l-107 42 51 42 c72 60
103 123 103 212 0 62 -4 78 -36 135 -20 36 -42 64 -48 63 -6 -2 -8 4 -4 14 5
12 3 14 -7 8 -8 -5 -11 -4 -6 3 3 6 1 22 -5 36 -11 23 -9 28 15 47 15 12 41
46 58 75 16 30 34 57 39 60 20 12 6 36 -46 75 -30 23 -55 47 -55 55 0 7 18 31
39 52 46 45 56 84 48 181 -14 166 -139 379 -279 474 -37 25 -83 44 -153 61
-104 27 -144 30 -210 15z m141 -40 c17 -5 44 -23 60 -41 l29 -31 -44 29 c-37
24 -57 30 -120 32 -42 2 -87 -1 -101 -6 -18 -7 -7 -8 42 -5 76 6 126 -1 154
-22 17 -13 14 -13 -18 0 -50 20 -128 19 -186 -3 -26 -10 -83 -42 -127 -72 -75
-50 -77 -51 -55 -20 23 32 139 115 148 105 3 -2 10 2 17 11 6 9 34 22 61 30
49 13 81 11 140 -7z m-227 -106 c-13 -15 -12 -15 9 -4 41 22 37 3 -8 -37 -56
-49 -47 -72 13 -33 48 32 100 53 57 23 -14 -9 -54 -41 -89 -71 -36 -30 -62
-47 -58 -39 8 23 -18 17 -48 -12 -40 -38 -37 -18 7 40 30 40 33 48 13 30 -15
-14 -48 -52 -73 -85 -64 -85 -69 -88 -33 -19 40 76 112 159 170 196 52 32 59
34 40 11z m464 -4 c21 -5 52 -24 70 -40 l32 -30 -44 28 c-37 23 -56 28 -108
28 -61 0 -82 9 -45 18 30 8 56 7 95 -4z m-186 -25 c-3 -3 -12 -4 -19 -1 -8 3
-5 6 6 6 11 1 17 -2 13 -5z m-96 -34 c-35 -17 -61 -33 -58 -36 7 -7 -46 -54
-163 -142 -119 -90 -128 -98 -164 -147 -17 -22 -63 -79 -103 -126 -94 -111
-103 -133 -104 -266 l-2 -108 -7 89 c-11 139 0 169 105 292 86 100 134 167
190 267 20 37 40 66 43 63 2 -3 0 -11 -5 -18 -18 -24 -64 -108 -59 -108 3 0
23 31 46 70 51 88 86 116 202 162 116 46 172 52 79 8z m-453 -80 c-17 -28 -33
-48 -36 -46 -4 5 56 96 63 96 2 0 -10 -23 -27 -50z m487 16 c-57 -26 -114 -70
-270 -206 -161 -139 -162 -139 -20 8 136 140 163 161 254 198 73 31 100 31 36
0z m355 -11 c19 -19 32 -35 29 -35 -3 0 -20 16 -39 35 -19 19 -32 35 -29 35 3
0 20 -16 39 -35z m-125 -103 c12 -65 15 -71 56 -84 48 -14 95 -64 108 -115 16
-63 19 -174 5 -169 -7 3 -43 -8 -81 -24 -48 -20 -69 -35 -71 -49 -3 -16 1 -18
20 -14 13 3 5 -4 -17 -16 -42 -23 -90 -28 -101 -10 -3 6 -20 19 -38 30 -21 14
-25 19 -11 17 12 -2 21 4 23 14 2 12 -17 24 -80 49 -98 38 -137 40 -198 11
l-45 -22 51 6 c29 3 70 0 95 -7 36 -11 40 -13 19 -16 -14 -2 -55 -8 -92 -14
-57 -9 -76 -8 -117 6 -27 8 -56 24 -66 34 -16 18 -14 21 32 52 26 18 87 69
134 114 129 124 154 138 255 143 l84 4 9 34 c5 19 5 49 0 71 -5 21 -8 43 -8
48 0 19 28 -56 34 -93z m-170 52 c-46 -17 -63 -31 -38 -31 10 1 36 0 57 -1
l39 -2 -59 -30 c-32 -16 -102 -64 -154 -105 -84 -67 -177 -116 -213 -114 -7 0
12 9 41 19 72 26 211 130 173 130 -12 0 -109 -49 -151 -76 -14 -9 -9 -4 10 12
52 43 154 148 155 159 0 6 9 9 19 7 12 -2 16 1 10 9 -4 7 -3 10 4 6 15 -10 43
3 35 16 -4 6 0 8 8 5 8 -3 23 -2 34 3 11 4 31 8 45 8 20 0 17 -3 -15 -15z
m326 -15 c26 -13 52 -55 43 -70 -3 -5 -1 -9 4 -9 5 0 12 -10 15 -21 5 -19 1
-17 -27 10 -19 18 -56 44 -82 57 -27 14 -38 22 -24 18 14 -3 44 -17 68 -30 23
-14 42 -21 42 -16 0 10 -46 54 -75 71 -24 15 -1 8 36 -10z m-761 -3 c0 -2 -8
-10 -17 -17 -16 -13 -17 -12 -4 4 13 16 21 21 21 13z m-169 -43 c-12 -20 -14
-14 -5 12 4 9 9 14 11 11 3 -2 0 -13 -6 -23z m905 -42 c52 -24 99 -81 114
-138 6 -25 9 -47 7 -50 -3 -2 -10 17 -16 42 -15 61 -69 119 -134 144 -29 11
-43 20 -32 20 11 0 38 -8 61 -18z m-622 -211 c-6 -6 -28 -13 -50 -15 l-39 -5
45 14 c25 7 47 14 50 15 2 0 -1 -4 -6 -9z m-106 -27 c-10 -2 -26 -2 -35 0 -10
3 -2 5 17 5 19 0 27 -2 18 -5z m-41 -103 c18 -36 33 -70 33 -77 0 -27 21 -22
26 7 4 17 10 33 15 35 4 3 38 -9 74 -26 68 -32 85 -53 85 -105 0 -38 27 -82
60 -99 37 -19 120 -19 165 -1 21 9 46 33 67 65 44 67 63 67 72 -1 4 -29 12
-68 18 -87 9 -30 8 -36 -8 -48 -11 -8 -28 -11 -39 -7 -11 3 -33 7 -49 9 -18 1
-33 9 -38 21 -6 16 -7 15 -5 -6 2 -20 8 -26 36 -28 22 -2 35 -10 38 -21 4 -17
7 -17 45 2 l40 20 -6 53 -6 52 29 -29 c23 -23 39 -29 70 -29 23 0 41 -3 41 -6
0 -3 -16 -37 -36 -74 -53 -101 -145 -233 -174 -248 -57 -30 -174 10 -307 104
-94 67 -129 115 -162 219 -26 83 -30 90 -52 87 -27 -3 -71 36 -74 65 -1 10 -7
31 -14 46 -13 32 -14 86 -3 104 5 8 14 4 31 -13 23 -24 23 -24 2 -24 -28 0
-28 -38 0 -74 24 -30 55 -37 40 -8 -5 9 -11 36 -14 59 -6 55 -31 92 -67 99
-37 8 -29 36 9 32 21 -2 32 -16 58 -68z m808 -29 c-6 -5 -28 -11 -50 -14 l-40
-6 35 14 c41 16 69 19 55 6z m-364 -26 c84 -30 100 -70 54 -138 -44 -64 -115
-84 -190 -53 -26 11 -36 23 -44 53 -13 46 -14 90 -3 97 12 7 52 -23 52 -39 0
-21 69 -39 110 -28 55 14 45 37 -20 44 -54 6 -130 35 -130 50 0 30 102 38 171
14z m359 -12 c0 -4 -5 -22 -12 -40 -9 -25 -16 -32 -30 -27 -30 9 -98 -6 -98
-22 0 -20 44 -35 80 -28 l30 7 0 -52 c0 -50 0 -51 -31 -51 -63 0 -98 35 -99
97 0 33 6 48 31 72 28 29 71 48 112 50 9 1 17 -2 17 -6z m71 -40 c13 -16 12
-17 -3 -4 -17 13 -22 21 -14 21 2 0 10 -8 17 -17z m9 -46 c0 -21 -52 -107 -65
-107 -3 0 8 19 25 42 16 22 30 48 30 56 0 9 -13 -5 -30 -31 -16 -26 -32 -47
-35 -47 -3 0 -5 25 -5 55 l0 55 40 0 c35 0 40 -3 40 -23z m-983 -19 c-3 -7 -5
-2 -5 12 0 14 2 19 5 13 2 -7 2 -19 0 -25z m-37 -189 c-14 -81 -50 -157 -128
-265 -33 -47 -66 -106 -76 -140 -30 -94 -29 -91 -33 -71 -9 36 8 84 52 152 25
37 45 70 45 73 0 12 -46 -37 -72 -77 -15 -25 -28 -40 -28 -34 0 17 54 86 106
133 27 25 48 45 46 45 -2 0 0 8 3 17 4 10 12 15 19 11 6 -3 8 -3 4 2 -4 4 -2
17 4 29 6 12 -7 4 -33 -20 -24 -23 -58 -49 -75 -58 -63 -31 -127 -137 -144
-234 -6 -36 -8 -40 -9 -16 -1 40 32 135 61 177 12 18 64 80 114 138 87 101
122 163 125 223 1 18 2 18 9 -4 6 -19 9 -7 11 45 l3 70 3 -65 c2 -35 -1 -94
-7 -131z m47 134 c-3 -10 -5 -4 -5 12 0 17 2 24 5 18 2 -7 2 -21 0 -30z m-211
-45 c-9 -20 -43 -72 -76 -116 -33 -45 -67 -98 -75 -119 -13 -38 -14 -38 -14
-8 -1 43 29 101 87 168 27 32 58 74 68 93 23 43 30 30 10 -18z m209 -146 c-25
-86 -56 -139 -140 -243 -42 -52 -82 -98 -88 -104 -18 -18 35 58 88 125 103
129 144 220 147 332 l2 63 3 -58 c3 -35 -3 -81 -12 -115z m168 77 c9 -30 29
-72 44 -92 54 -71 244 -206 320 -226 25 -7 29 -14 36 -61 9 -62 21 -79 77
-106 45 -21 47 -26 65 -135 15 -94 9 -106 -68 -145 -45 -23 -60 -26 -122 -22
-44 4 -90 14 -122 29 -49 22 -61 36 -184 209 -72 102 -134 191 -137 199 -3 9
7 25 26 41 21 17 34 40 41 70 12 52 13 181 2 258 -9 64 -1 56 22 -19z m-296 4
c-3 -10 -5 -2 -5 17 0 19 2 27 5 18 2 -10 2 -26 0 -35z m-116 -79 c-27 -55
-50 -96 -50 -92 -1 11 93 198 97 194 2 -2 -19 -48 -47 -102z m99 19 c-11 -17
-11 -17 -6 0 3 10 6 24 7 30 0 9 2 9 5 0 3 -7 0 -20 -6 -30z m1109 -31 c11
-21 22 -56 25 -77 6 -35 4 -33 -12 15 -10 30 -24 65 -31 78 -6 12 -9 22 -7 22
3 0 14 -17 25 -38z m-39 -147 c5 -22 9 -60 8 -85 0 -43 -1 -42 -8 15 -5 33
-22 97 -39 143 -17 46 -31 86 -31 90 1 15 62 -125 70 -163z m-1089 128 c-12
-20 -14 -14 -5 12 4 9 9 14 11 11 3 -2 0 -13 -6 -23z m1018 -153 c0 -8 -6 0
-14 19 -8 18 -15 36 -15 40 1 13 29 -45 29 -59z m148 3 c-3 -10 -5 -4 -5 12 0
17 2 24 5 18 2 -7 2 -21 0 -30z m-877 -11 c0 -5 -18 -14 -40 -21 -71 -21 -71
-21 180 -381 143 -205 367 -531 397 -577 10 -16 12 -14 12 14 1 18 17 125 36
239 39 226 42 295 21 407 -17 90 -42 140 -90 186 -20 19 -36 39 -36 43 0 16
48 7 81 -15 64 -44 222 -212 280 -299 66 -98 70 -91 -53 -103 -41 -5 -65 -11
-62 -17 7 -11 37 -9 211 12 111 14 236 4 323 -25 38 -13 40 -14 11 -10 -19 3
-66 7 -105 10 -63 4 -59 3 29 -10 55 -8 106 -13 113 -10 8 3 10 0 6 -7 -5 -8
-2 -9 9 -5 10 3 17 3 17 -1 0 -9 65 -39 113 -51 l39 -10 -17 26 c-16 24 -16
26 6 49 12 13 46 40 76 61 29 20 51 38 49 40 -6 6 -112 -55 -127 -73 -8 -10
-15 -11 -24 -4 -9 7 -16 5 -26 -7 -13 -16 -12 -17 3 -5 9 8 19 9 22 4 3 -6 -1
-13 -10 -16 -10 -4 -13 -13 -9 -27 6 -18 5 -20 -14 -10 -27 15 -26 25 5 66 56
74 205 146 296 144 l43 -1 -50 -9 c-97 -16 -199 -63 -240 -110 -18 -21 -17
-21 15 3 55 40 114 67 182 82 82 19 138 26 138 17 0 -4 -35 -24 -77 -44 -109
-53 -233 -138 -233 -159 0 -9 5 -20 10 -23 19 -12 -1 -25 -38 -25 -21 0 -48 7
-60 16 -13 9 -42 18 -65 21 -23 2 -60 8 -82 14 -62 14 -283 22 -352 12 -59 -9
-83 -4 -83 18 0 10 82 28 175 39 l80 9 -90 -5 c-49 -2 -108 -9 -130 -15 -22
-6 -48 -10 -57 -10 -10 0 -18 -7 -18 -15 0 -8 -31 -80 -70 -160 -38 -81 -67
-150 -65 -155 3 -4 -19 -51 -48 -104 l-54 -97 -58 -2 c-52 -3 -58 -1 -78 25
-11 16 -75 75 -141 131 -138 117 -306 277 -306 290 0 5 23 42 50 83 28 41 50
79 50 86 0 9 -25 10 -100 5 -55 -3 -105 -7 -111 -9 -17 -3 -88 194 -91 247 -1
43 3 50 53 103 30 32 65 71 77 87 14 19 36 32 60 36 20 4 38 8 40 9 1 0 2 -3
2 -7z m737 -79 c-2 -16 -4 -5 -4 22 0 28 2 40 4 28 2 -13 2 -35 0 -50z m-1268
-45 c-26 -52 -34 -61 -24 -28 8 26 34 70 41 70 3 0 -5 -19 -17 -42z m1361 9
c0 -2 -15 -16 -32 -33 l-33 -29 29 33 c28 30 36 37 36 29z m-1393 -89 c-3 -8
-6 -5 -6 6 -1 11 2 17 5 13 3 -3 4 -12 1 -19z m-10 -85 c-2 -16 -4 -5 -4 22 0
28 2 40 4 28 2 -13 2 -35 0 -50z m329 6 c7 -30 28 -89 47 -131 31 -67 33 -77
19 -81 -33 -9 84 -6 148 3 35 5 66 8 67 6 2 -2 -19 -38 -47 -80 l-50 -77 96
-104 c53 -57 104 -110 114 -117 54 -40 250 -211 250 -219 0 -5 -8 -12 -17 -16
-95 -32 -262 -109 -280 -128 -12 -14 -40 -82 -62 -152 -38 -120 -65 -172 -130
-253 l-21 -25 0 107 c0 89 -6 129 -35 243 -20 76 -49 202 -66 282 -16 79 -41
179 -54 222 -24 75 -84 182 -118 210 -23 19 -22 -2 2 -23 25 -22 87 -157 106
-231 39 -149 117 -676 102 -691 -2 -2 -20 31 -40 73 -19 43 -56 123 -81 177
-26 55 -49 97 -52 94 -11 -11 28 -132 82 -256 31 -70 62 -155 69 -189 7 -34
16 -66 19 -71 3 -6 -18 -29 -46 -53 -29 -23 -70 -59 -91 -78 -37 -35 -40 -36
-120 -36 -67 -1 -92 -6 -139 -27 -32 -15 -58 -33 -58 -41 0 -13 8 -12 50 4 72
27 83 23 25 -10 -56 -33 -126 -101 -149 -145 l-15 -30 -21 50 c-12 27 -24 60
-27 74 -2 14 5 142 16 285 11 143 28 361 36 485 9 124 24 297 35 384 11 88 19
161 17 163 -6 5 -46 -186 -57 -272 -6 -44 -14 -146 -19 -228 -4 -81 -11 -150
-14 -153 -13 -13 -19 226 -9 390 15 244 48 430 86 481 14 19 15 19 50 3 84
-40 156 -134 211 -273 15 -38 47 -146 70 -240 40 -157 83 -281 84 -245 2 27
-86 345 -115 417 -79 199 -141 294 -224 341 l-51 29 35 27 c44 33 338 187 350
183 5 -2 15 -28 22 -58z m-239 -1 c-3 -8 -6 -5 -6 6 -1 11 2 17 5 13 3 -3 4
-12 1 -19z m1389 -35 c134 -53 162 -74 170 -124 l6 -37 -78 -4 c-62 -4 -81 -2
-89 10 -5 8 -31 47 -57 86 -26 39 -55 81 -64 94 -9 12 -14 22 -10 22 3 0 58
-21 122 -47z m963 -106 c-2 -2 -40 -19 -84 -37 -43 -19 -122 -63 -173 -98 -91
-60 -139 -77 -77 -26 74 61 318 184 334 169 2 -3 2 -6 0 -8z m-754 -27 c19
-36 19 -40 1 -40 -8 0 -15 14 -18 35 -2 19 -3 35 -1 35 1 0 9 -13 18 -30z
m-539 -169 c-15 -77 -29 -168 -32 -203 -3 -35 -8 -69 -10 -77 -5 -15 -62 61
-203 272 l-90 136 45 -20 c96 -43 210 -34 276 21 18 16 34 24 36 20 2 -5 -8
-72 -22 -149z m934 106 c0 -2 -12 -14 -27 -28 l-28 -24 24 28 c23 25 31 32 31
24z m217 -16 c-1 -12 -6 -17 -16 -13 -10 4 -12 1 -6 -9 6 -11 5 -11 -5 -2 -13
12 -4 37 11 28 5 -4 9 -1 9 4 0 6 2 11 4 11 3 0 4 -9 3 -19z m-52 -29 c-17
-12 -16 -32 1 -32 8 0 12 -4 9 -10 -3 -5 -1 -10 4 -10 6 0 11 6 11 14 0 8 5
18 12 22 6 4 9 3 6 -2 -25 -46 -31 -146 -9 -155 11 -4 10 -8 -3 -22 -10 -9
-15 -21 -12 -25 3 -5 -6 -7 -19 -4 -15 2 -25 0 -25 -7 0 -7 -4 -10 -9 -7 -5 4
-11 1 -13 -5 -3 -9 -9 -9 -26 0 -15 8 -22 21 -22 42 0 18 -6 32 -16 36 -13 5
-13 7 -2 14 9 6 7 9 -9 9 -13 0 -24 -8 -28 -21 -4 -11 -9 -18 -12 -16 -7 7 27
69 46 85 9 8 10 11 4 7 -8 -4 -13 0 -13 10 0 9 4 14 9 10 6 -3 15 4 21 16 7
11 14 18 17 15 3 -3 12 2 19 12 8 10 13 12 14 5 0 -7 5 -13 11 -13 5 0 7 5 3
12 -7 11 25 42 35 32 3 -3 1 -8 -4 -12z m-465 -66 c107 -17 160 -32 185 -50
19 -14 18 -18 -40 -128 -32 -62 -146 -284 -252 -493 -106 -209 -193 -376 -193
-371 0 14 136 298 246 512 57 110 104 204 104 208 0 5 -7 5 -16 2 -9 -3 -12
-2 -9 5 4 6 13 8 19 6 8 -3 28 23 51 65 21 39 33 68 26 64 -6 -4 -19 -25 -27
-47 -9 -22 -21 -36 -27 -32 -6 3 -7 1 -3 -5 4 -7 2 -12 -4 -12 -8 0 -10 10 -6
28 l5 27 -11 -25 c-7 -14 -17 -29 -23 -33 -6 -5 -3 -7 7 -3 10 3 20 1 23 -4 4
-6 -5 -10 -19 -10 -14 0 -28 5 -31 10 -4 6 -11 8 -16 5 -5 -4 -9 -1 -9 4 0 20
-25 11 -45 -17 -18 -25 -18 -26 0 -12 17 14 17 14 5 -7 -11 -17 -17 -19 -27
-11 -11 8 -12 7 -6 -8 6 -17 5 -17 -10 -5 -11 9 -17 10 -17 2 0 -6 -3 -10 -7
-9 -15 4 -53 -13 -53 -23 0 -6 -5 -7 -12 -3 -8 5 -9 1 -4 -12 6 -15 5 -17 -5
-6 -15 14 -33 16 -24 2 3 -5 0 -7 -8 -4 -8 3 -21 -1 -28 -9 -8 -7 -20 -12 -27
-9 -6 2 -12 0 -12 -5 0 -5 -10 -10 -22 -10 -13 -1 -24 -7 -26 -13 -2 -5 -8 -8
-13 -4 -5 3 -9 0 -9 -6 0 -6 -4 -9 -8 -6 -5 3 -51 -8 -102 -25 -52 -16 -99
-28 -105 -26 -5 2 21 12 58 22 37 10 67 21 67 24 0 4 10 7 22 8 11 1 24 6 27
10 3 4 13 9 21 11 8 1 72 26 142 54 l127 51 -3 38 c-2 22 0 39 4 39 4 0 6 9 3
20 -3 10 -10 18 -17 17 -6 -1 -10 4 -8 11 1 6 -3 12 -9 12 -5 0 -8 4 -4 9 3 5
-5 13 -17 16 -48 14 -78 31 -83 45 -4 11 -21 15 -62 17 -40 1 -52 -2 -42 -9
10 -7 5 -8 -19 -5 -23 2 -31 0 -28 -9 2 -6 -4 -14 -15 -17 -18 -5 -16 2 14 56
19 34 32 67 30 74 -8 24 249 30 377 9z m-407 -31 c-9 -19 -20 -35 -25 -35 -4
0 -5 -6 -2 -13 3 -8 0 -25 -5 -39 -7 -18 -6 -29 2 -37 8 -8 6 -11 -7 -11 -9 0
-14 -4 -11 -10 3 -5 1 -10 -5 -10 -6 0 -8 -4 -5 -10 3 -5 1 -10 -5 -10 -6 0
-9 -4 -6 -9 4 -5 2 -11 -2 -13 -5 -1 -41 -64 -80 -138 -103 -194 -89 -141 19
72 95 189 113 245 35 111 -25 -43 -46 -74 -46 -69 0 5 22 45 49 90 26 45 58
100 70 124 26 50 48 57 24 7z m967 25 c0 -5 -2 -10 -4 -10 -3 0 -8 5 -11 10
-3 6 -1 10 4 10 6 0 11 -4 11 -10z m-17 -35 c-3 -9 -8 -14 -10 -11 -3 3 -2 9
2 15 9 16 15 13 8 -4z m-265 -57 c-9 -13 -50 -88 -93 -168 -43 -80 -82 -147
-87 -148 -4 -2 -6 -8 -2 -13 3 -5 0 -9 -6 -9 -6 0 -22 -24 -35 -52 -13 -29
-32 -59 -43 -65 -21 -12 -5 24 169 382 42 86 46 91 78 93 33 3 34 2 19 -20z
m-6 -92 c2 -12 -3 -20 -14 -21 -14 -3 -15 1 -6 21 13 27 15 27 20 0z m152
-111 c-4 -8 -11 -15 -16 -15 -6 0 -5 6 2 15 7 8 14 15 16 15 2 0 1 -7 -2 -15z
m599 -33 c19 -18 45 -54 58 -80 22 -45 24 -62 36 -372 9 -231 21 -396 42 -570
16 -135 28 -246 27 -248 -2 -1 -20 5 -40 13 -63 27 -222 45 -440 52 l-208 6 6
37 c3 20 17 63 31 94 58 130 56 262 -5 394 -30 67 -31 68 -21 156 7 57 7 95 1
107 -6 10 -10 38 -10 63 0 52 -16 69 -104 107 -31 13 -55 29 -55 34 0 6 22 55
48 110 l48 100 174 16 c96 10 220 16 276 15 101 -1 102 -1 136 -34z m-1692
-169 c12 -32 6 -37 -71 -59 -64 -18 -127 -44 -225 -96 -104 -56 -45 -49 74 8
53 26 115 52 139 59 39 12 43 12 40 -3 -2 -9 -14 -22 -27 -28 -12 -7 -32 -27
-43 -45 -11 -19 -22 -36 -24 -38 -1 -2 -49 -21 -106 -42 -99 -37 -101 -38 -58
-38 25 -1 77 6 115 14 66 14 360 45 433 45 18 0 32 -5 32 -12 0 -22 -33 -48
-62 -48 -37 0 -38 27 0 32 26 3 26 4 -5 9 -30 5 -33 3 -33 -21 0 -26 0 -26
-137 -44 -154 -21 -279 -48 -295 -64 -13 -13 -5 -12 271 35 112 19 205 32 207
30 12 -11 -35 -29 -176 -68 -85 -23 -157 -46 -160 -50 -3 -4 -37 -15 -76 -24
-63 -14 -142 -50 -132 -60 2 -2 26 2 53 11 28 8 97 23 155 34 58 10 135 28
172 39 51 15 65 16 62 6 -7 -17 -159 -82 -246 -104 -37 -10 -71 -20 -75 -24
-3 -4 -18 -7 -32 -7 -14 0 -33 -5 -41 -11 -11 -8 -7 -9 19 -5 29 5 32 4 20
-10 -17 -21 -57 -40 -101 -48 -35 -6 -47 -20 -179 -201 -77 -107 -144 -197
-149 -200 -13 -8 -70 243 -70 306 0 61 -6 51 121 206 70 85 88 119 132 263 20
63 43 124 51 136 16 22 218 110 301 130 85 21 114 18 126 -13z m1094 -114 c47
-23 50 -26 51 -65 1 -23 6 -50 12 -60 23 -43 -3 -152 -81 -349 -86 -217 -88
-224 -89 -265 -1 -35 -8 -37 -33 -10 -30 34 -28 15 5 -39 36 -58 56 -66 124
-51 27 6 51 9 53 6 3 -3 -15 -26 -39 -51 l-44 -47 -179 -27 -180 -28 -13 41
c-7 23 -15 73 -18 111 -11 124 31 238 118 321 45 43 119 96 125 90 2 -2 -17
-36 -42 -75 -25 -38 -58 -96 -73 -128 -24 -52 -27 -67 -24 -145 2 -49 7 -88
12 -88 4 0 31 55 60 123 83 194 129 280 146 273 23 -9 16 3 -16 31 -17 14 -37
38 -45 53 l-14 28 66 -28 c36 -16 73 -25 82 -22 11 4 7 8 -15 15 -43 14 -348
138 -354 144 -5 5 60 -5 93 -14 9 -2 14 -9 11 -15 -4 -5 4 -3 17 5 21 13 38
13 129 1 128 -16 143 -17 135 -4 -3 6 -17 10 -30 10 -13 0 -25 6 -27 13 -3 9
-49 13 -164 17 -161 5 -184 10 -184 36 0 9 11 14 36 14 25 0 33 -3 28 -12 -4
-7 1 -6 12 3 23 20 240 51 304 43 40 -4 42 -3 20 7 l-25 11 28 10 c31 11 27
28 -7 28 -13 0 -41 7 -61 16 -42 17 -95 16 -213 -6 -64 -12 -74 -12 -82 0 -14
23 -8 33 36 55 46 23 213 55 264 51 20 -2 58 -14 85 -27z m-1004 -30 c105 -13
121 -18 94 -29 -18 -8 -18 -9 -2 -9 10 -1 15 -5 12 -11 -8 -13 -52 -13 -61 1
-4 8 -9 8 -17 0 -7 -7 -55 -11 -119 -11 l-108 0 17 35 c15 32 21 35 58 35 23
0 80 -5 126 -11z m847 -56 c-10 -2 -26 -2 -35 0 -10 3 -2 5 17 5 19 0 27 -2
18 -5z m-124 -232 c61 -26 94 -54 96 -83 0 -6 -68 -22 -200 -48 -64 -12 -155
-52 -187 -82 -28 -26 -29 -14 -4 45 40 92 65 121 141 160 40 20 75 37 79 37 4
0 38 -13 75 -29z m391 -177 c8 -32 15 -74 15 -94 0 -46 -22 -137 -42 -175 -18
-32 -17 -33 -38 40 -7 22 -25 64 -41 92 -16 29 -29 58 -29 64 0 11 66 183 78
204 8 12 37 -56 57 -131z m-671 94 c-4 -7 -18 -30 -30 -50 -13 -20 -32 -64
-44 -97 -17 -51 -19 -70 -11 -124 10 -72 32 -119 103 -225 65 -97 67 -102 30
-102 -26 0 -36 10 -92 95 -98 149 -103 193 -41 365 17 46 31 92 31 101 0 10
10 25 22 33 27 19 42 21 32 4z m-104 -109 c-56 -135 -59 -224 -10 -320 33 -63
15 -45 -25 26 -20 36 -38 65 -40 65 -7 0 21 -71 64 -164 22 -49 41 -94 41
-101 0 -18 -48 -25 -165 -25 -85 0 -122 -6 -230 -35 -182 -50 -413 -124 -420
-135 -3 -5 8 -5 27 0 17 6 33 8 35 6 6 -6 -129 -60 -252 -101 -105 -36 -115
-37 -210 -32 -55 2 -111 9 -125 15 -25 10 -24 10 21 31 29 13 85 24 160 31
138 13 186 33 218 90 31 56 51 159 51 271 l0 96 50 23 c61 29 58 39 -5 15 -26
-9 -48 -16 -50 -14 -2 2 -6 24 -9 49 -6 42 -4 49 43 111 43 58 55 68 89 74 23
4 63 23 93 46 l53 40 141 -6 c121 -6 209 -13 355 -32 29 -3 85 17 127 46 1 0
-11 -31 -27 -70z m308 -1 c-50 -63 -68 -94 -89 -156 -23 -67 -25 -217 -4 -277
19 -54 12 -55 -21 -3 -44 69 -81 166 -100 261 l-17 87 24 26 c34 36 82 64 147
85 92 29 99 26 60 -23z m-1465 -293 c9 -44 25 -125 37 -179 23 -116 52 -168
105 -187 19 -7 34 -18 32 -24 -6 -16 -95 -33 -186 -34 -67 -1 -98 -6 -150 -28
-50 -20 -83 -27 -138 -28 l-72 0 -54 53 c-90 89 -120 174 -97 274 17 70 33
101 82 154 42 46 84 75 131 93 40 15 33 7 -17 -23 -50 -29 -121 -105 -130
-139 -4 -17 1 -14 22 13 45 59 104 120 115 120 5 0 3 -8 -5 -17 -37 -42 -117
-237 -104 -251 3 -2 30 46 60 107 34 67 74 129 101 158 48 50 62 52 45 9 -5
-15 -10 -39 -10 -54 0 -21 6 -13 25 33 19 46 42 77 102 135 l78 75 6 -90 c3
-49 13 -126 22 -170z m274 -31 c6 -87 -8 -190 -34 -257 l-17 -42 -42 130 c-24
71 -40 134 -36 140 4 6 29 43 57 83 45 65 51 69 58 49 5 -12 11 -58 14 -103z
m1626 -124 c-4 -4 -84 -19 -178 -35 -93 -15 -314 -54 -490 -86 -176 -33 -390
-71 -475 -85 -85 -13 -167 -27 -182 -30 -16 -3 -28 -1 -28 5 0 12 117 49 270
85 81 20 875 140 1045 158 34 4 51 -1 38 -12z m-2553 -180 c-12 -8 -11 -10 5
-11 15 -1 16 -2 4 -6 -9 -2 -19 -14 -22 -26 -22 -90 -50 -174 -60 -182 -13
-11 -47 -80 -52 -105 -2 -8 -13 -37 -26 -65 -12 -27 -23 -53 -24 -57 -2 -5 -4
-10 -5 -13 -1 -3 -3 -8 -5 -12 -1 -5 -9 -25 -18 -45 -10 -21 -17 -43 -17 -50
0 -7 -7 -22 -15 -32 -8 -11 -15 -26 -15 -34 0 -8 -9 -25 -20 -39 -11 -14 -18
-29 -15 -33 7 -12 -135 -30 -230 -30 -77 0 -86 2 -99 23 -11 17 -15 77 -18
254 -3 127 -3 245 0 261 3 25 10 30 55 41 120 29 318 85 396 112 46 15 87 26
92 24 4 -3 9 -1 11 3 4 10 81 42 88 35 2 -2 -2 -8 -10 -13z m1183 -80 c3 -11
1 -20 -4 -20 -6 0 -72 -22 -147 -50 -151 -55 -165 -58 -160 -33 2 12 47 33
148 69 80 29 148 53 151 53 4 1 9 -8 12 -19z m-1826 -552 c-1 -46 -3 -9 -3 82
0 91 2 128 3 83 2 -46 2 -120 0 -165z"/>
<path d="M1720 3880 c0 -5 10 -15 23 -21 22 -12 22 -12 3 10 -21 23 -26 26
-26 11z"/>
<path d="M2251 3608 c-14 -5 -45 -9 -69 -10 l-43 -1 37 -31 c53 -44 75 -55
111 -56 46 0 60 8 84 47 18 29 19 37 8 44 -8 5 -26 6 -41 3 -15 -3 -35 -1 -45
4 -11 6 -27 6 -42 0z m99 -53 c-16 -19 -77 -19 -110 0 -23 13 -20 14 49 15 64
0 72 -2 61 -15z"/>
<path d="M1602 3700 c0 -14 2 -19 5 -12 2 6 2 18 0 25 -3 6 -5 1 -5 -13z"/>
<path d="M1489 3433 c-13 -16 -12 -17 4 -4 9 7 17 15 17 17 0 8 -8 3 -21 -13z"/>
<path d="M3005 2846 c44 -7 91 -16 105 -19 19 -5 18 -4 -5 7 -17 8 -64 17
-105 20 l-75 6 80 -14z"/>
<path d="M1210 1826 c0 -6 150 -118 212 -159 62 -40 88 -49 48 -16 -35 28
-260 180 -260 175z"/>
<path d="M3404 2768 c-3 -4 2 -8 10 -8 8 0 17 4 20 8 3 5 -2 9 -10 9 -8 0 -17
-4 -20 -9z"/>
<path d="M3350 2740 c-13 -8 -12 -10 3 -10 9 0 17 5 17 10 0 12 -1 12 -20 0z"/>
<path d="M2748 2783 c6 -2 18 -2 25 0 6 3 1 5 -13 5 -14 0 -19 -2 -12 -5z"/>
<path d="M3770 2370 c-80 -10 -131 -18 -115 -19 17 0 97 6 178 15 109 12 159
13 189 6 30 -8 38 -8 29 1 -18 18 -124 17 -281 -3z"/>
<path d="M3450 2350 c30 -5 80 -8 110 -7 l55 0 -65 7 c-36 4 -85 8 -110 7 -45
0 -45 0 10 -7z"/>
<path d="M2237 2268 c5 -10 64 -10 80 0 6 4 -10 7 -37 7 -26 0 -46 -3 -43 -7z"/>
<path d="M1950 2170 c0 -13 11 -13 30 0 12 8 11 10 -7 10 -13 0 -23 -4 -23
-10z"/>
<path d="M1830 1666 c0 -2 8 -10 18 -17 15 -13 16 -12 3 4 -13 16 -21 21 -21
13z"/>
<path d="M3100 2154 c-31 -13 -32 -14 -6 -9 18 4 32 1 37 -7 6 -9 9 -6 9 10 0
12 -1 22 -2 21 -2 0 -19 -7 -38 -15z"/>
<path d="M1477 4025 c-9 -19 -15 -35 -12 -35 7 0 37 61 33 66 -3 2 -12 -12
-21 -31z"/>
<path d="M1145 3270 c3 -5 8 -10 11 -10 2 0 4 5 4 10 0 6 -5 10 -11 10 -5 0
-7 -4 -4 -10z"/>
<path d="M0 2244 c0 -12 7 -41 15 -65 9 -24 22 -87 30 -140 13 -83 91 -337
101 -326 2 1 -14 57 -36 122 -22 66 -40 127 -40 135 0 13 16 14 113 8 136 -8
260 -35 432 -93 71 -24 132 -42 134 -39 9 8 -188 94 -273 118 -111 33 -248 48
-341 40 l-72 -6 -7 61 c-7 64 -55 222 -56 185z"/>
<path d="M3461 825 c-30 -27 -61 -78 -116 -187 -41 -82 -89 -171 -107 -196
-43 -64 -229 -302 -296 -380 l-54 -62 104 1 103 1 -47 16 c-27 8 -48 18 -48
22 0 12 74 129 123 196 57 76 202 206 268 239 l46 24 -4 98 -5 98 40 80 c23
44 39 81 37 83 -2 2 -22 -13 -44 -33z"/>
<path d="M3617 790 c-3 -42 -16 -82 -38 -125 l-33 -64 27 -38 c15 -22 27 -42
27 -45 0 -4 -26 -20 -58 -36 -94 -46 -169 -100 -217 -156 -45 -50 -132 -207
-160 -286 l-14 -40 37 0 c33 1 40 5 66 48 92 149 99 180 15 70 -30 -39 -60
-78 -67 -87 -19 -24 25 85 65 162 71 134 162 207 243 192 110 -20 238 -159
286 -310 17 -55 27 -71 43 -73 27 -4 26 5 -3 77 -55 135 -172 279 -268 327
l-51 26 64 31 c58 29 64 35 63 62 -1 17 -7 45 -15 62 -11 26 -11 41 -1 78 14
52 16 154 3 173 -5 9 -10 -9 -14 -48z"/>
<path d="M2840 704 c-197 -136 -344 -253 -270 -214 77 40 399 285 368 280 -2
-1 -46 -30 -98 -66z"/>
<path d="M3747 710 c-34 -27 -67 -98 -67 -144 0 -20 -10 -60 -21 -87 -18 -41
-20 -54 -11 -74 14 -31 36 -32 56 -3 9 12 17 20 19 17 2 -2 31 -44 65 -94 34
-49 75 -106 92 -125 27 -31 24 -21 -26 80 -32 63 -77 143 -101 178 -61 91 -57
158 11 240 31 36 22 42 -17 12z"/>
<path d="M2735 236 c-116 -76 -183 -137 -80 -72 112 72 216 149 193 145 -2 0
-52 -33 -113 -73z"/>
<path d="M3365 121 c-3 -16 -19 -50 -35 -75 -26 -41 -27 -46 -11 -46 19 0 44
52 57 118 8 40 -2 43 -11 3z"/>
</g>
</svg>